<svg xmlns="http://www.w3.org/2000/svg" xmlns:xlink="http://www.w3.org/1999/xlink" preserveAspectRatio="none" fill="none" version="1.1" width="296" height="36" viewBox="0 0 296 36"><defs><linearGradient x1="0.9478889107704163" y1="0.5" x2="0" y2="0.5" id="master_svg0_21_50327"><stop offset="0%" stop-color="#FFFFFF" stop-opacity="0"/><stop offset="18.517769873142242%" stop-color="#FFFFFF" stop-opacity="0.8999999761581421"/><stop offset="99.99998807907104%" stop-color="#FFFFFF" stop-opacity="1"/></linearGradient><mask id="master_svg1_136_41482" style="mask-type:alpha" maskUnits="userSpaceOnUse" x="-6.1611328125" y="-17.71002197265625" width="261.80120849609375" height="63.324981689453125"><rect x="0" y="0" width="255.6400146484375" height="35.42000198364258" rx="0" fill="url(#master_svg0_21_50327)" fill-opacity="1"/></mask><linearGradient x1="0.4846760034561157" y1="0" x2="0.4846760034561157" y2="1" id="master_svg2_21_50245"><stop offset="0%" stop-color="#3D7CEE" stop-opacity="1"/><stop offset="98.57142567634583%" stop-color="#3D7CEE" stop-opacity="0"/></linearGradient><linearGradient x1="1.2779457569122314" y1="1" x2="1.3855515659628737e-19" y2="1" id="master_svg3_21_50257"><stop offset="2.857142873108387%" stop-color="#3D7CEE" stop-opacity="0"/><stop offset="100%" stop-color="#3D7CEE" stop-opacity="1"/></linearGradient><linearGradient x1="1.2758318185806274" y1="0.9999996423721313" x2="0" y2="0.9999996423721313" id="master_svg4_21_41952"><stop offset="0%" stop-color="#FFFFFF" stop-opacity="0"/><stop offset="100%" stop-color="#FFFFFF" stop-opacity="1"/></linearGradient><linearGradient x1="0" y1="0.5" x2="1" y2="0.5" id="master_svg5_21_50281"><stop offset="0%" stop-color="#3D7CEE" stop-opacity="0"/><stop offset="72.85714149475098%" stop-color="#3D7CEE" stop-opacity="0.6000000238418579"/><stop offset="100%" stop-color="#3D7CEE" stop-opacity="0"/></linearGradient><filter id="master_svg6_136_41484" filterUnits="objectBoundingBox" color-interpolation-filters="sRGB" x="-1.5026087079725179" y="-1.5026087079725179" width="4.005217415945036" height="4.005217415945036"><feFlood flood-opacity="0" result="BackgroundImageFix"/><feColorMatrix in="SourceAlpha" type="matrix" values="0 0 0 0 0 0 0 0 0 0 0 0 0 0 0 0 0 0 127 0"/><feOffset dy="0" dx="0"/><feGaussianBlur stdDeviation="0.9355500936508179"/><feColorMatrix type="matrix" values="0 0 0 0 1 0 0 0 0 0.6313725709915161 0 0 0 0 0.6313725709915161 0 0 0 1 0"/><feBlend mode="normal" in2="BackgroundImageFix" result="effect1_dropShadow"/><feBlend mode="normal" in="SourceGraphic" in2="effect1_dropShadow" result="shape"/></filter><linearGradient x1="0.9478889107704163" y1="0.5" x2="0" y2="0.5" id="master_svg7_21_50327"><stop offset="0%" stop-color="#FFFFFF" stop-opacity="0"/><stop offset="18.517769873142242%" stop-color="#FFFFFF" stop-opacity="0.8999999761581421"/><stop offset="99.99998807907104%" stop-color="#FFFFFF" stop-opacity="1"/></linearGradient><mask id="master_svg8_136_41366" style="mask-type:alpha" maskUnits="userSpaceOnUse" x="-6.1611328125" y="-17.71002197265625" width="261.80120849609375" height="63.324981689453125"><rect x="0" y="0" width="255.6400146484375" height="35.42000198364258" rx="0" fill="url(#master_svg7_21_50327)" fill-opacity="1"/></mask><linearGradient x1="0.4846760034561157" y1="0" x2="0.4846760034561157" y2="1" id="master_svg9_21_50245"><stop offset="0%" stop-color="#3D7CEE" stop-opacity="1"/><stop offset="98.57142567634583%" stop-color="#3D7CEE" stop-opacity="0"/></linearGradient><linearGradient x1="1.2779457569122314" y1="1" x2="1.3855515659628737e-19" y2="1" id="master_svga_21_50257"><stop offset="2.857142873108387%" stop-color="#3D7CEE" stop-opacity="0"/><stop offset="100%" stop-color="#3D7CEE" stop-opacity="1"/></linearGradient><linearGradient x1="1.2758318185806274" y1="0.9999996423721313" x2="0" y2="0.9999996423721313" id="master_svgb_21_41952"><stop offset="0%" stop-color="#FFFFFF" stop-opacity="0"/><stop offset="100%" stop-color="#FFFFFF" stop-opacity="1"/></linearGradient><linearGradient x1="0" y1="0.5" x2="1" y2="0.5" id="master_svgc_21_50281"><stop offset="0%" stop-color="#3D7CEE" stop-opacity="0"/><stop offset="72.85714149475098%" stop-color="#3D7CEE" stop-opacity="0.6000000238418579"/><stop offset="100%" stop-color="#3D7CEE" stop-opacity="0"/></linearGradient><filter id="master_svgd_136_41369" filterUnits="objectBoundingBox" color-interpolation-filters="sRGB" x="-1.5026087079725179" y="-1.5026087079725179" width="4.005217415945036" height="4.005217415945036"><feFlood flood-opacity="0" result="BackgroundImageFix"/><feColorMatrix in="SourceAlpha" type="matrix" values="0 0 0 0 0 0 0 0 0 0 0 0 0 0 0 0 0 0 127 0"/><feOffset dy="0" dx="0"/><feGaussianBlur stdDeviation="0.9355500936508179"/><feColorMatrix type="matrix" values="0 0 0 0 1 0 0 0 0 0.6313725709915161 0 0 0 0 0.6313725709915161 0 0 0 1 0"/><feBlend mode="normal" in2="BackgroundImageFix" result="effect1_dropShadow"/><feBlend mode="normal" in="SourceGraphic" in2="effect1_dropShadow" result="shape"/></filter><mask id="master_svge_136_41487" style="mask-type:alpha" maskUnits="userSpaceOnUse" x="0" y="0" width="296" height="36"><rect x="0" y="0" width="296" height="36" rx="0" fill="#FFFFFF" fill-opacity="1"/></mask></defs><g mask="url(#master_svg1_136_41482)"><g><path d="M-2.4781918125,-17.71002197265625L-6.1611328125,-13.27215717265625L-6.1611328125,-14.59152147265625C-6.1611328125,-16.31632197265625,-4.7674328125,-17.71002197265625,-3.0426323125,-17.71002197265625L-2.4781918125,-17.71002197265625ZM-5.9782685825,41.24271802734375C-6.0966534615,40.91293002734375,-6.1611328125,40.55726602734375,-6.1611328125,40.18628302734375L-6.1611328125,37.64436002734375L39.7769161875,-17.71002197265625L42.9460071875,-17.71002197265625L-5.9782685825,41.24271802734375ZM-6.1611328125,18.55028102734375L-6.1611328125,22.36909902734375L27.100097187499998,-17.71002197265625L23.9309311875,-17.71002197265625L-6.1611328125,18.55028102734375ZM-6.1611328125,28.733994027343748L-6.1611328125,32.55273102734375L35.5513881875,-17.71002197265625L32.3822971875,-17.71002197265625L-6.1611328125,28.733994027343748ZM-6.1611328125,-8.18073177265625L-6.1611328125,-4.362071972656249L4.916241187500001,-17.71002197265625L1.7470759874999997,-17.71002197265625L-6.1611328125,-8.18073177265625ZM-6.1611328125,0.7294770273437514L-6.1611328125,4.54821402734375L12.3107831875,-17.71002197265625L9.1416161875,-17.71002197265625L-6.1611328125,0.7294770273437514ZM-6.1611328125,9.640303027343752L-6.1611328125,13.459042027343749L19.7057841875,-17.71002197265625L16.5366211875,-17.71002197265625L-6.1611328125,9.640303027343752ZM-0.2933769125000003,43.30477902734375L-3.0406828125,43.30477902734375C-3.1764800125,43.30477902734375,-3.3102291125,43.29615402734375,-3.4414062125,43.27936902734375L47.1730151875,-17.71002197265625L50.3421901875,-17.71002197265625L-0.2933769125000003,43.30477902734375ZM3.9306641874999997,43.30477902734375L7.0997521875,43.30477902734375L57.7353361875,-17.71002197265625L54.5662501875,-17.71002197265625L3.9306641874999997,43.30477902734375ZM11.3261721875,43.30477902734375L14.4953381875,43.30477902734375L65.1308441875,-17.71002197265625L61.9617611875,-17.71002197265625L11.3261721875,43.30477902734375ZM18.7207031875,43.30477902734375L21.8898701875,43.30477902734375L72.5251461875,-17.71002197265625L69.3562931875,-17.71002197265625L18.7207031875,43.30477902734375ZM26.1142581875,43.30477902734375L29.283424187500003,43.30477902734375L79.9187771875,-17.71002197265625L76.7494661875,-17.71002197265625L26.1142581875,43.30477902734375ZM32.7568361875,43.30477902734375L35.9259261875,43.30477902734375L86.5611271875,-17.71002197265625L83.3925781875,-17.71002197265625L32.7568361875,43.30477902734375ZM40.1513671875,43.30477902734375L43.3204571875,43.30477902734375L93.9556571875,-17.71002197265625L90.7871091875,-17.71002197265625L40.1513671875,43.30477902734375ZM47.5458981875,43.30477902734375L50.7149891875,43.30477902734375L101.3505671875,-17.71002197265625L98.1814871875,-17.71002197265625L47.5458981875,43.30477902734375ZM58.109520187499996,43.30477902734375L54.9404291875,43.30477902734375L105.5758671875,-17.71002197265625L108.5311171875,-17.71002197265625C108.6011971875,-17.71002197265625,108.6704871875,-17.70772668715625,108.7390171875,-17.70320712635625L58.109520187499996,43.30477902734375ZM65.5041271875,43.30486302734375L62.3349611875,43.30486302734375L111.4002071875,-15.81768797265625C111.5611371875,-15.441466072656251,111.6496871875,-15.02700567265625,111.6496871875,-14.59143977265625L111.6496871875,-12.299627272656249L65.5041271875,43.30486302734375ZM69.7304691875,43.30469102734375L72.8996351875,43.30469102734375L111.6506571875,-3.3895739726562493L111.6506571875,-7.20831297265625L69.7304691875,43.30469102734375ZM77.1250001875,43.30481702734375L80.2935481875,43.30481702734375L111.6502671875,5.52107002734375L111.6502671875,1.7023320273437506L77.1250001875,43.30481702734375ZM88.7437441875,43.30498102734375L85.5751951875,43.30498102734375L111.6497071875,11.885437027343752L111.6497071875,15.704174027343747L88.7437441875,43.30498102734375ZM96.1390471875,43.30473302734375L92.9697261875,43.30473302734375L111.6506971875,20.79486102734375L111.6506971875,24.61359802734375L96.1390471875,43.30473302734375ZM103.5335771875,43.30478302734375L100.3642571875,43.30478302734375L111.6501471875,29.705505027343747L111.6501471875,33.52424202734375L103.5335771875,43.30478302734375ZM111.6493871875,38.61566202734375L111.6493871875,40.18630602734375C111.6493871875,41.91110602734375,110.2556871875,43.30481002734375,108.5308871875,43.30481002734375L107.7578171875,43.30481002734375L111.6493871875,38.61566202734375Z" fill-rule="evenodd" fill="#8A909B" fill-opacity="0.05000000074505806"/></g><g><path d="M115.333331625,-15.399993896484375L111.650390625,-10.962129096484375L111.650390625,-12.281493396484375C111.650390625,-14.006293896484376,113.044090625,-15.399993896484375,114.768891125,-15.399993896484375L115.333331625,-15.399993896484375ZM111.833254855,43.552746103515624C111.714869976,43.22295810351562,111.650390625,42.867294103515626,111.650390625,42.49631110351562L111.650390625,39.954388103515626L157.588439625,-15.399993896484375L160.75753062500002,-15.399993896484375L111.833254855,43.552746103515624ZM111.650390625,20.860309103515625L111.650390625,24.679127103515626L144.911620625,-15.399993896484375L141.742454625,-15.399993896484375L111.650390625,20.860309103515625ZM111.650390625,31.044022103515623L111.650390625,34.86275910351562L153.362911625,-15.399993896484375L150.193820625,-15.399993896484375L111.650390625,31.044022103515623ZM111.650390625,-5.870703696484375L111.650390625,-2.052043896484374L122.727764625,-15.399993896484375L119.558599425,-15.399993896484375L111.650390625,-5.870703696484375ZM111.650390625,3.0395051035156264L111.650390625,6.858242103515625L130.122306625,-15.399993896484375L126.953139625,-15.399993896484375L111.650390625,3.0395051035156264ZM111.650390625,11.950331103515627L111.650390625,15.769070103515624L137.517307625,-15.399993896484375L134.348144625,-15.399993896484375L111.650390625,11.950331103515627ZM117.516193425,45.61480710351562L114.768887525,45.61480710351562C114.633090225,45.61480710351562,114.499341225,45.60618210351563,114.368164025,45.58939710351562L164.982585625,-15.399993896484375L168.151759625,-15.399993896484375L117.516193425,45.61480710351562ZM121.74121062500001,45.61480710351562L124.910299625,45.61480710351562L175.545883625,-15.399993896484375L172.376796625,-15.399993896484375L121.74121062500001,45.61480710351562ZM129.135742625,45.61480710351562L132.304908625,45.61480710351562L182.94041462500002,-15.399993896484375L179.77133162500002,-15.399993896484375L129.135742625,45.61480710351562ZM136.530273625,45.61480710351562L139.699439625,45.61480710351562L190.334716625,-15.399993896484375L187.165862625,-15.399993896484375L136.530273625,45.61480710351562ZM143.924804625,45.61480710351562L147.093971625,45.61480710351562L197.729324625,-15.399993896484375L194.560012625,-15.399993896484375L143.924804625,45.61480710351562ZM150.567382625,45.61480710351562L153.736472625,45.61480710351562L204.371673625,-15.399993896484375L201.203124625,-15.399993896484375L150.567382625,45.61480710351562ZM157.96093762499999,45.61480710351562L161.130027625,45.61480710351562L211.76523062500002,-15.399993896484375L208.59667962499998,-15.399993896484375L157.96093762499999,45.61480710351562ZM165.356445625,45.61480710351562L168.525535625,45.61480710351562L219.161120625,-15.399993896484375L215.99203062499998,-15.399993896484375L165.356445625,45.61480710351562ZM175.920066625,45.61480710351562L172.750976625,45.61480710351562L223.386410625,-15.399993896484375L226.341670625,-15.399993896484375C226.411740625,-15.399993896484375,226.48103062500002,-15.397698610984374,226.549570625,-15.393179050184376L175.920066625,45.61480710351562ZM183.314674625,45.61479910351562L180.145507625,45.61479910351562L229.210750625,-13.507751496484374C229.37169062499999,-13.131529596484375,229.460230625,-12.717069196484374,229.460230625,-12.281503196484374L229.460230625,-9.989690796484375L183.314674625,45.61479910351562ZM187.540038625,45.61481110351563L190.70920562499998,45.61481110351563L229.460230625,-1.0794548964843749L229.460230625,-4.898192896484375L187.540038625,45.61481110351563ZM194.934570625,45.61493710351562L198.10311862499998,45.61493710351562L229.459840625,7.831190103515624L229.459840625,4.012451103515627L194.934570625,45.61493710351562ZM206.55331462499998,45.61491810351563L203.384765625,45.61491810351563L229.459270625,14.195373103515625L229.459270625,18.014110103515627L206.55331462499998,45.61491810351563ZM213.948620625,45.614792103515626L210.779296625,45.614792103515626L229.46027062500002,23.104919103515627L229.46027062500002,26.923656103515626L213.948620625,45.614792103515626ZM221.34315062500002,45.61478010351563L218.173830625,45.61478010351563L229.459720625,32.01550310351563L229.459720625,35.834240103515626L221.34315062500002,45.61478010351563ZM229.459940625,40.925812103515625L229.459940625,42.49645610351563C229.459940625,44.22125610351563,228.066240625,45.61496010351563,226.34144062500002,45.61496010351563L225.568360625,45.61496010351563L229.459940625,40.925812103515625Z" fill-rule="evenodd" fill="#8A909B" fill-opacity="0.05000000074505806"/></g><path d="M0,8.117340087890625L251.24008,8.117340596566406L235.047,35.42038308789063L0,35.42038308789063L0,8.117340087890625Z" fill-rule="evenodd" fill="url(#master_svg2_21_50245)" fill-opacity="1" style="opacity:0.5;"/><path d="M0,0.0000019073486328125L254.86989,0.0000019073486328125L250.155,8.117085407348632L0,8.116960507348633L0,0.0000019073486328125Z" fill-rule="evenodd" fill="url(#master_svg3_21_50257)" fill-opacity="1" style="opacity:0.8999999761581421;"/><path d="M0,0L255.64006,0.00002744556L251.69524,4.4275017L0,4.0586677L0,0Z" fill-rule="evenodd" fill="url(#master_svg4_21_41952)" fill-opacity="1" style="opacity:0.8999999761581421;"/><path d="M240.0641,29.550864423828124L248.9203,15.907404343828125L248.27444,15.488164503828125L239.64594,28.780864423828127L0,28.780864423828127L0,29.550864423828124L240.0641,29.550864423828124Z" fill-rule="evenodd" fill="url(#master_svg5_21_50281)" fill-opacity="1"/><path d="M9.2392578125,14.6300048828125L15.4654298125,14.6300048828125L15.4654298125,20.8561768828125L9.2392578125,20.8561768828125L9.2392578125,14.6300048828125Z" fill-rule="evenodd" fill="#3D7CEE" fill-opacity="1" style="opacity:0.20000000298023224;"/><path d="M11.1083984375,16.49786376953125L13.598867437500001,16.49786376953125L13.598867437500001,18.98833276953125L11.1083984375,18.98833276953125L11.1083984375,16.49786376953125Z" fill-rule="evenodd" fill="#3D7CEE" fill-opacity="1" filter="url(#master_svg6_136_41484)"/></g><g mask="url(#master_svg8_136_41366)"><g><path d="M-2.4781918125,-17.71002197265625L-6.1611328125,-13.27215717265625L-6.1611328125,-14.59152147265625C-6.1611328125,-16.31632197265625,-4.7674328125,-17.71002197265625,-3.0426323125,-17.71002197265625L-2.4781918125,-17.71002197265625ZM-5.9782685825,41.24271802734375C-6.0966534615,40.91293002734375,-6.1611328125,40.55726602734375,-6.1611328125,40.18628302734375L-6.1611328125,37.64436002734375L39.7769161875,-17.71002197265625L42.9460071875,-17.71002197265625L-5.9782685825,41.24271802734375ZM-6.1611328125,18.55028102734375L-6.1611328125,22.36909902734375L27.100097187499998,-17.71002197265625L23.9309311875,-17.71002197265625L-6.1611328125,18.55028102734375ZM-6.1611328125,28.733994027343748L-6.1611328125,32.55273102734375L35.5513881875,-17.71002197265625L32.3822971875,-17.71002197265625L-6.1611328125,28.733994027343748ZM-6.1611328125,-8.18073177265625L-6.1611328125,-4.362071972656249L4.916241187500001,-17.71002197265625L1.7470759874999997,-17.71002197265625L-6.1611328125,-8.18073177265625ZM-6.1611328125,0.7294770273437514L-6.1611328125,4.54821402734375L12.3107831875,-17.71002197265625L9.1416161875,-17.71002197265625L-6.1611328125,0.7294770273437514ZM-6.1611328125,9.640303027343752L-6.1611328125,13.459042027343749L19.7057841875,-17.71002197265625L16.5366211875,-17.71002197265625L-6.1611328125,9.640303027343752ZM-0.2933769125000003,43.30477902734375L-3.0406828125,43.30477902734375C-3.1764800125,43.30477902734375,-3.3102291125,43.29615402734375,-3.4414062125,43.27936902734375L47.1730151875,-17.71002197265625L50.3421901875,-17.71002197265625L-0.2933769125000003,43.30477902734375ZM3.9306641874999997,43.30477902734375L7.0997521875,43.30477902734375L57.7353361875,-17.71002197265625L54.5662501875,-17.71002197265625L3.9306641874999997,43.30477902734375ZM11.3261721875,43.30477902734375L14.4953381875,43.30477902734375L65.1308441875,-17.71002197265625L61.9617611875,-17.71002197265625L11.3261721875,43.30477902734375ZM18.7207031875,43.30477902734375L21.8898701875,43.30477902734375L72.5251461875,-17.71002197265625L69.3562931875,-17.71002197265625L18.7207031875,43.30477902734375ZM26.1142581875,43.30477902734375L29.283424187500003,43.30477902734375L79.9187771875,-17.71002197265625L76.7494661875,-17.71002197265625L26.1142581875,43.30477902734375ZM32.7568361875,43.30477902734375L35.9259261875,43.30477902734375L86.5611271875,-17.71002197265625L83.3925781875,-17.71002197265625L32.7568361875,43.30477902734375ZM40.1513671875,43.30477902734375L43.3204571875,43.30477902734375L93.9556571875,-17.71002197265625L90.7871091875,-17.71002197265625L40.1513671875,43.30477902734375ZM47.5458981875,43.30477902734375L50.7149891875,43.30477902734375L101.3505671875,-17.71002197265625L98.1814871875,-17.71002197265625L47.5458981875,43.30477902734375ZM58.109520187499996,43.30477902734375L54.9404291875,43.30477902734375L105.5758671875,-17.71002197265625L108.5311171875,-17.71002197265625C108.6011971875,-17.71002197265625,108.6704871875,-17.70772668715625,108.7390171875,-17.70320712635625L58.109520187499996,43.30477902734375ZM65.5041271875,43.30486302734375L62.3349611875,43.30486302734375L111.4002071875,-15.81768797265625C111.5611371875,-15.441466072656251,111.6496871875,-15.02700567265625,111.6496871875,-14.59143977265625L111.6496871875,-12.299627272656249L65.5041271875,43.30486302734375ZM69.7304691875,43.30469102734375L72.8996351875,43.30469102734375L111.6506571875,-3.3895739726562493L111.6506571875,-7.20831297265625L69.7304691875,43.30469102734375ZM77.1250001875,43.30481702734375L80.2935481875,43.30481702734375L111.6502671875,5.52107002734375L111.6502671875,1.7023320273437506L77.1250001875,43.30481702734375ZM88.7437441875,43.30498102734375L85.5751951875,43.30498102734375L111.6497071875,11.885437027343752L111.6497071875,15.704174027343747L88.7437441875,43.30498102734375ZM96.1390471875,43.30473302734375L92.9697261875,43.30473302734375L111.6506971875,20.79486102734375L111.6506971875,24.61359802734375L96.1390471875,43.30473302734375ZM103.5335771875,43.30478302734375L100.3642571875,43.30478302734375L111.6501471875,29.705505027343747L111.6501471875,33.52424202734375L103.5335771875,43.30478302734375ZM111.6493871875,38.61566202734375L111.6493871875,40.18630602734375C111.6493871875,41.91110602734375,110.2556871875,43.30481002734375,108.5308871875,43.30481002734375L107.7578171875,43.30481002734375L111.6493871875,38.61566202734375Z" fill-rule="evenodd" fill="#8A909B" fill-opacity="0.05000000074505806"/></g><g><path d="M115.333331625,-15.399993896484375L111.650390625,-10.962129096484375L111.650390625,-12.281493396484375C111.650390625,-14.006293896484376,113.044090625,-15.399993896484375,114.768891125,-15.399993896484375L115.333331625,-15.399993896484375ZM111.833254855,43.552746103515624C111.714869976,43.22295810351562,111.650390625,42.867294103515626,111.650390625,42.49631110351562L111.650390625,39.954388103515626L157.588439625,-15.399993896484375L160.75753062500002,-15.399993896484375L111.833254855,43.552746103515624ZM111.650390625,20.860309103515625L111.650390625,24.679127103515626L144.911620625,-15.399993896484375L141.742454625,-15.399993896484375L111.650390625,20.860309103515625ZM111.650390625,31.044022103515623L111.650390625,34.86275910351562L153.362911625,-15.399993896484375L150.193820625,-15.399993896484375L111.650390625,31.044022103515623ZM111.650390625,-5.870703696484375L111.650390625,-2.052043896484374L122.727764625,-15.399993896484375L119.558599425,-15.399993896484375L111.650390625,-5.870703696484375ZM111.650390625,3.0395051035156264L111.650390625,6.858242103515625L130.122306625,-15.399993896484375L126.953139625,-15.399993896484375L111.650390625,3.0395051035156264ZM111.650390625,11.950331103515627L111.650390625,15.769070103515624L137.517307625,-15.399993896484375L134.348144625,-15.399993896484375L111.650390625,11.950331103515627ZM117.516193425,45.61480710351562L114.768887525,45.61480710351562C114.633090225,45.61480710351562,114.499341225,45.60618210351563,114.368164025,45.58939710351562L164.982585625,-15.399993896484375L168.151759625,-15.399993896484375L117.516193425,45.61480710351562ZM121.74121062500001,45.61480710351562L124.910299625,45.61480710351562L175.545883625,-15.399993896484375L172.376796625,-15.399993896484375L121.74121062500001,45.61480710351562ZM129.135742625,45.61480710351562L132.304908625,45.61480710351562L182.94041462500002,-15.399993896484375L179.77133162500002,-15.399993896484375L129.135742625,45.61480710351562ZM136.530273625,45.61480710351562L139.699439625,45.61480710351562L190.334716625,-15.399993896484375L187.165862625,-15.399993896484375L136.530273625,45.61480710351562ZM143.924804625,45.61480710351562L147.093971625,45.61480710351562L197.729324625,-15.399993896484375L194.560012625,-15.399993896484375L143.924804625,45.61480710351562ZM150.567382625,45.61480710351562L153.736472625,45.61480710351562L204.371673625,-15.399993896484375L201.203124625,-15.399993896484375L150.567382625,45.61480710351562ZM157.96093762499999,45.61480710351562L161.130027625,45.61480710351562L211.76523062500002,-15.399993896484375L208.59667962499998,-15.399993896484375L157.96093762499999,45.61480710351562ZM165.356445625,45.61480710351562L168.525535625,45.61480710351562L219.161120625,-15.399993896484375L215.99203062499998,-15.399993896484375L165.356445625,45.61480710351562ZM175.920066625,45.61480710351562L172.750976625,45.61480710351562L223.386410625,-15.399993896484375L226.341670625,-15.399993896484375C226.411740625,-15.399993896484375,226.48103062500002,-15.397698610984374,226.549570625,-15.393179050184376L175.920066625,45.61480710351562ZM183.314674625,45.61479910351562L180.145507625,45.61479910351562L229.210750625,-13.507751496484374C229.37169062499999,-13.131529596484375,229.460230625,-12.717069196484374,229.460230625,-12.281503196484374L229.460230625,-9.989690796484375L183.314674625,45.61479910351562ZM187.540038625,45.61481110351563L190.70920562499998,45.61481110351563L229.460230625,-1.0794548964843749L229.460230625,-4.898192896484375L187.540038625,45.61481110351563ZM194.934570625,45.61493710351562L198.10311862499998,45.61493710351562L229.459840625,7.831190103515624L229.459840625,4.012451103515627L194.934570625,45.61493710351562ZM206.55331462499998,45.61491810351563L203.384765625,45.61491810351563L229.459270625,14.195373103515625L229.459270625,18.014110103515627L206.55331462499998,45.61491810351563ZM213.948620625,45.614792103515626L210.779296625,45.614792103515626L229.46027062500002,23.104919103515627L229.46027062500002,26.923656103515626L213.948620625,45.614792103515626ZM221.34315062500002,45.61478010351563L218.173830625,45.61478010351563L229.459720625,32.01550310351563L229.459720625,35.834240103515626L221.34315062500002,45.61478010351563ZM229.459940625,40.925812103515625L229.459940625,42.49645610351563C229.459940625,44.22125610351563,228.066240625,45.61496010351563,226.34144062500002,45.61496010351563L225.568360625,45.61496010351563L229.459940625,40.925812103515625Z" fill-rule="evenodd" fill="#8A909B" fill-opacity="0.05000000074505806"/></g><path d="M0,8.117340087890625L251.24008,8.117340596566406L235.047,35.42038308789063L0,35.42038308789063L0,8.117340087890625Z" fill-rule="evenodd" fill="url(#master_svg9_21_50245)" fill-opacity="1" style="opacity:0.5;"/><path d="M0,0.0000019073486328125L254.86989,0.0000019073486328125L250.155,8.117085407348632L0,8.116960507348633L0,0.0000019073486328125Z" fill-rule="evenodd" fill="url(#master_svga_21_50257)" fill-opacity="1" style="opacity:0.8999999761581421;"/><path d="M0,0L255.64006,0.00002744556L251.69524,4.4275017L0,4.0586677L0,0Z" fill-rule="evenodd" fill="url(#master_svgb_21_41952)" fill-opacity="1" style="opacity:0.8999999761581421;"/><path d="M240.0641,29.550864423828124L248.9203,15.907404343828125L248.27444,15.488164503828125L239.64594,28.780864423828127L0,28.780864423828127L0,29.550864423828124L240.0641,29.550864423828124Z" fill-rule="evenodd" fill="url(#master_svgc_21_50281)" fill-opacity="1"/><path d="M9.2392578125,14.6300048828125L15.4654298125,14.6300048828125L15.4654298125,20.8561768828125L9.2392578125,20.8561768828125L9.2392578125,14.6300048828125Z" fill-rule="evenodd" fill="#3D7CEE" fill-opacity="1" style="opacity:0.20000000298023224;"/><path d="M11.1083984375,16.49786376953125L13.598867437500001,16.49786376953125L13.598867437500001,18.98833276953125L11.1083984375,18.98833276953125L11.1083984375,16.49786376953125Z" fill-rule="evenodd" fill="#3D7CEE" fill-opacity="1" filter="url(#master_svgd_136_41369)"/></g><g mask="url(#master_svge_136_41487)"></g></svg>
